<svg width="251" height="66" viewBox="0 0 251 66" fill="none" xmlns="http://www.w3.org/2000/svg">
<path d="M83.1209 33.0653C81.462 31.9137 79.1871 31.3819 77.3903 31.0453L74.113 30.4307C70.9492 29.8348 70.0332 29.2496 70.0332 27.8227C70.0332 25.4287 72.9972 25.0706 74.7669 25.0706C78.3279 25.0706 80.1138 26.3505 80.3894 29.1027L80.438 29.5836H85.5877L85.5417 29.0065C85.1176 23.6811 81.1891 20.627 74.7669 20.627C68.7202 20.627 64.9646 23.4006 64.9646 27.8655C64.9646 30.1047 65.7292 31.7774 67.299 32.9825C68.577 33.9631 70.344 34.6205 73.0269 35.1175L76.3069 35.7321C79.6356 36.3493 80.6514 36.9853 80.6514 38.4495C80.6514 40.9773 77.5741 41.3541 75.7422 41.3541C73.5943 41.3541 69.9333 40.8197 69.5658 37.2338L69.5172 36.7528H64.3945L64.4351 37.3246C64.8025 42.6313 69.0309 45.7977 75.7422 45.7977C82.0834 45.7977 85.7201 43.0402 85.7201 38.2304C85.7201 35.9672 84.8717 34.2758 83.1236 33.0653H83.1209Z" fill="#1A4439"/>
<path d="M99.5749 20.6257C93.231 20.6257 89.3188 23.6852 89.1107 28.8075L89.0891 29.3633H94.2928L94.3117 28.8476C94.4036 26.4027 96.2246 25.1121 99.5749 25.1121C103.136 25.1121 104.795 26.5711 104.795 29.7053V30.4188L96.8947 30.7474C89.5079 31.0574 87.957 34.8063 87.957 37.8979C87.957 42.6942 91.7342 45.7938 97.5809 45.7938C100.758 45.7938 103.201 44.7971 104.838 42.8439V45.1365H109.728V29.9218C109.728 23.8375 106.216 20.623 99.5722 20.623L99.5749 20.6257ZM104.792 34.8223C104.681 38.9507 102.228 41.3101 98.0268 41.3101C94.8494 41.3101 93.0284 40.0676 93.0284 37.9005C93.0284 36.789 93.4336 35.2953 96.9406 35.1483L104.792 34.8223Z" fill="#1A4439"/>
<path d="M122.228 17.217C122.228 17.1556 122.234 17.1288 122.234 17.1288L122.258 17.1021C122.258 17.1021 122.283 17.0941 122.353 17.0941H129.983V12.5195H125.011C119.802 12.5195 117.16 15.1328 117.16 20.2846V21.2839H111.621V25.8585H117.16V45.14H122.228V25.8585H128.875V21.2839H122.228V17.217Z" fill="#1A4439"/>
<path d="M147.699 37.251C147.02 39.9845 144.959 41.3152 141.401 41.3152C137.248 41.3152 134.668 38.9665 134.252 34.8462H152.843V32.1207C152.843 25.0344 148.425 20.6309 141.314 20.6309C137.675 20.6309 134.614 21.8066 132.46 24.0271C130.304 26.2529 129.164 29.4299 129.164 33.2162C129.164 37.0025 130.248 40.2357 132.301 42.4001C134.438 44.658 137.502 45.8016 141.403 45.8016C148.72 45.8016 152.151 41.5023 152.924 37.4781L153.046 36.8449H147.804L147.704 37.251H147.699ZM141.311 25.1173C145.118 25.1173 147.38 27.0197 147.734 30.4907H134.43C135.189 27.1132 137.723 25.1173 141.311 25.1173Z" fill="#1A4439"/>
<path d="M177.453 23.6754C175.324 21.7114 172.433 20.6292 169.318 20.6292C165.884 20.6292 163.236 21.7034 161.44 23.8277V12.5195H156.371V45.14H159.967L160.975 41.9576C160.975 41.9576 160.986 41.9736 160.994 41.9843C162.855 44.5148 165.655 45.7974 169.318 45.7974C172.433 45.7974 175.322 44.7152 177.453 42.7512C179.907 40.488 181.204 37.1907 181.204 33.212C181.204 29.2332 179.907 25.936 177.453 23.6727V23.6754ZM176.089 33.212C176.089 38.1526 173.241 41.2228 168.654 41.2228C164.066 41.2228 161.218 38.1526 161.218 33.212C161.218 28.2713 164.066 25.2012 168.654 25.2012C173.241 25.2012 176.089 28.2713 176.089 33.212Z" fill="#1A4439"/>
<path d="M195.902 20.627C188.28 20.627 183.352 25.5676 183.352 33.2123C183.352 40.8571 188.277 45.7977 195.902 45.7977C203.526 45.7977 208.449 40.8571 208.449 33.2123C208.449 25.5676 203.523 20.627 195.902 20.627ZM195.902 41.2231C191.314 41.2231 188.466 38.1529 188.466 33.2123C188.466 28.2717 191.314 25.2015 195.902 25.2015C200.489 25.2015 203.337 28.2717 203.337 33.2123C203.337 38.1529 200.489 41.2231 195.902 41.2231Z" fill="#1A4439"/>
<path d="M232.425 21.2852H227.5L220.94 29.7021L214.45 21.2852H209.5V22.8804L217.417 32.8631L208.879 43.546V45.1413H213.85L220.586 36.5078L227.23 45.1413H232.204V43.546L224.109 33.3468L232.425 22.9258V21.2852Z" fill="#1A4439"/>
<path d="M50.9435 16.713L34.5434 7.45162C32.055 6.05413 29.0182 6.06482 26.5677 7.48903L10.3864 16.9081C7.93587 18.3296 6.44986 20.9455 6.48498 23.7806L6.70653 42.4476C6.74166 45.2826 8.28981 47.8852 10.7782 49.2854L27.1782 58.5468C29.6666 59.9443 32.7008 59.9336 35.154 58.5094L51.3326 49.093C53.7831 47.6688 55.2718 45.0528 55.234 42.2178L55.0152 23.5508C54.98 20.7184 53.4292 18.1132 50.9435 16.713ZM29.1884 30.1855L14.5067 21.8006C13.2855 21.1112 13.299 19.3851 14.5067 18.685L29.2235 10.3107C30.1124 9.81105 31.2012 9.81105 32.0766 10.3107L46.6638 18.6155C47.931 19.3396 47.931 21.146 46.6638 21.8701V21.8808L32.0415 30.1855C31.1526 30.6878 30.0638 30.6878 29.1884 30.1855ZM51.2596 27.2729C51.2596 27.9677 50.8895 28.6009 50.3032 28.9483L37.5559 36.3713C37.2614 36.545 37.0777 36.8683 37.0777 37.2023V39.0514C37.0777 39.4228 37.4695 39.6606 37.7883 39.4736L49.8358 32.4621C50.4734 32.088 51.2596 32.5609 51.2596 33.2931V43.7435C51.2596 44.4383 50.8895 45.0715 50.3032 45.4189L34.0517 54.862C33.414 55.2361 32.6305 54.7631 32.6305 54.031V51.8853C32.6305 51.2013 32.998 50.5573 33.5843 50.2206L46.6746 42.6132C46.9691 42.4396 47.1528 42.1162 47.1528 41.7822V39.9332C47.1528 39.5591 46.7611 39.3239 46.4423 39.511L34.0517 46.7095C33.414 47.0809 32.6305 46.6106 32.6305 45.8785V35.217C32.6305 34.5222 32.9845 33.8889 33.5843 33.5416L49.8358 24.0852C50.4707 23.7138 51.2488 24.1787 51.2596 24.9029V27.2729Z" fill="#007550"/>
<mask id="mask0_484_2562" style="mask-type:luminance" maskUnits="userSpaceOnUse" x="235" y="21" width="9" height="5">
<path d="M243.868 21.3457H235.523V25.621H243.868V21.3457Z" fill="white"/>
</mask>
<g mask="url(#mask0_484_2562)">
<path d="M235.523 21.9616H236.866V25.621H237.547V21.9616H238.89V21.3457H235.523V21.9616Z" fill="#1A4439"/>
<path d="M242.769 21.3457L241.577 24.981L240.397 21.3866L240.385 21.3457H239.285V25.621H239.959V22.1661L241.078 25.5801L241.093 25.621H242.061L243.194 22.1613V25.621H243.868V21.3457H242.769Z" fill="#1A4439"/>
</g>
</svg>
