<svg width="128" height="140" viewBox="0 0 128 140" fill="none" xmlns="http://www.w3.org/2000/svg"><path d="M116.321 27.1208L73.5968 2.73688C67.1143 -0.94251 59.203 -0.914369 52.8192 2.83537L10.6653 27.6343C4.28129 31.377 0.410086 38.2645 0.501587 45.7288L1.07875 94.8762C1.17025 102.341 5.20335 109.193 11.6859 112.879L54.4097 137.263C60.8922 140.943 68.7965 140.914 75.1876 137.165L117.334 112.373C123.718 108.623 127.597 101.736 127.498 94.2712L126.928 45.1238C126.837 37.6665 122.796 30.8072 116.321 27.1208ZM59.6464 62.5919L21.3991 40.5157C18.2176 38.7007 18.2528 34.1559 21.3991 32.3127L59.7379 10.2645C62.0536 8.94893 64.8901 8.94893 67.1706 10.2645L105.172 32.1298C108.473 34.0363 108.473 38.7921 105.172 40.6986V40.7268L67.0791 62.5919C64.7635 63.9145 61.9269 63.9145 59.6464 62.5919ZM117.144 54.9235C117.144 56.7527 116.18 58.42 114.653 59.3346L81.4448 78.8783C80.6776 79.3356 80.199 80.1868 80.199 81.0662V85.9345C80.199 86.9124 81.2196 87.5386 82.0502 87.0461L113.435 68.5858C115.096 67.6009 117.144 68.8461 117.144 70.7738V98.2883C117.144 100.117 116.18 101.785 114.653 102.699L72.3158 127.562C70.6547 128.547 68.6135 127.301 68.6135 125.374V119.724C68.6135 117.923 69.5708 116.228 71.0982 115.342L105.2 95.3124C105.967 94.8551 106.446 94.0039 106.446 93.1245V88.2561C106.446 87.2712 105.425 86.6521 104.595 87.1446L72.3158 106.097C70.6547 107.075 68.6135 105.837 68.6135 103.909V75.8391C68.6135 74.0099 69.5356 72.3426 71.0982 71.428L113.435 46.5308C115.089 45.5529 117.116 46.777 117.144 48.6836V54.9235Z" fill="#007550"/></svg>